HIERARCHY
ROOT Hips
{
  OFFSET 90.7885 88.945 -76.2838
  CHANNELS 6 Xposition Yposition Zposition Zrotation Xrotation Yrotation
  JOINT LeftUpLeg
  {
    OFFSET 8.64259 1.95398 -2.38835
    CHANNELS 3 Zrotation Xrotation Yrotation
    JOINT LeftLeg
    {
      OFFSET 43.7702 0 0
      CHANNELS 3 Zrotation Xrotation Yrotation
      JOINT LeftFoot
      {
        OFFSET 40.6238 0 0
        CHANNELS 3 Zrotation Xrotation Yrotation
        JOINT LeftToeBase
        {
          OFFSET 12.7242 0 0
          CHANNELS 3 Zrotation Xrotation Yrotation
          End Site
          {
            OFFSET 0 0 0
          }
        }
      }
    }
  }
  JOINT RightUpLeg
  {
    OFFSET -8.2249 1.95398 -2.59336
    CHANNELS 3 Zrotation Xrotation Yrotation
    JOINT RightLeg
    {
      OFFSET 43.5653 0 0
      CHANNELS 3 Zrotation Xrotation Yrotation
      JOINT RightFoot
      {
        OFFSET 40.6238 0 0
        CHANNELS 3 Zrotation Xrotation Yrotation
        JOINT RightToeBase
        {
          OFFSET 12.7242 0 0
          CHANNELS 3 Zrotation Xrotation Yrotation
          End Site
          {
            OFFSET 0 0 0
          }
        }
      }
    }
  }
  JOINT Spine
  {
    OFFSET 0.165834 0.87714 6.61349
    CHANNELS 3 Zrotation Xrotation Yrotation
    JOINT Spine1
    {
      OFFSET 7.38963 1.71661e-005 0
      CHANNELS 3 Zrotation Xrotation Yrotation
      JOINT Spine2
      {
        OFFSET 11.9445 1.14441e-005 0
        CHANNELS 3 Zrotation Xrotation Yrotation
        JOINT Spine3
        {
          OFFSET 14.7254 4.19617e-005 0
          CHANNELS 3 Zrotation Xrotation Yrotation
          JOINT Spine4
          {
            OFFSET 10.9679 0 0
            CHANNELS 3 Zrotation Xrotation Yrotation
            JOINT RightShoulder
            {
              OFFSET 2.46616 -1.6653 3.69651
              CHANNELS 3 Zrotation Xrotation Yrotation
              JOINT RightArm
              {
                OFFSET 13.0012 0 0
                CHANNELS 3 Zrotation Xrotation Yrotation
                JOINT RightForeArm
                {
                  OFFSET 28.7848 1.52588e-005 0
                  CHANNELS 3 Zrotation Xrotation Yrotation
                  JOINT RightHand
                  {
                    OFFSET 26.5688 1.52588e-005 0
                    CHANNELS 3 Zrotation Xrotation Yrotation
                    End Site
                    {
                      OFFSET 0 0 0
                    }
                  }
                }
              }
            }
            JOINT LeftShoulder
            {
              OFFSET 2.38034 -1.29275 -3.7523
              CHANNELS 3 Zrotation Xrotation Yrotation
              JOINT LeftArm
              {
                OFFSET 16.3182 6.10352e-005 0
                CHANNELS 3 Zrotation Xrotation Yrotation
                JOINT LeftForeArm
                {
                  OFFSET 27.0901 0 0
                  CHANNELS 3 Zrotation Xrotation Yrotation
                  JOINT LeftHand
                  {
                    OFFSET 24.5451 1.52588e-005 0
                    CHANNELS 3 Zrotation Xrotation Yrotation
                    End Site
                    {
                      OFFSET 0 0 0
                    }
                  }
                }
              }
            }
            JOINT Neck
            {
              OFFSET 5.0226 -0.0266342 0
              CHANNELS 3 Zrotation Xrotation Yrotation
              JOINT Head
              {
                OFFSET 6.69363 2.86102e-005 0
                CHANNELS 3 Zrotation Xrotation Yrotation
                End Site
                {
                  OFFSET 0 0 0
                }
              }
            }
          }
        }
      }
    }
  }
}
MOTION
Frames:	15
Frame Time:	0.0416667
10.2787 99.4018 21.5532 -156.351 -82.7257 -157.214 -177.632 -2.0828 89.4004 -14.1852 3.31174 -0.219191 72.3319 4.80583 -2.35248 14.3116 -3.02093 5.65174 169.548 -4.66922 87.1452 -12.8951 -3.51488 -0.139068 71.7371 -5.96138 2.79853 20.5191 -1.16103 3.95417 0.209188 7.64934 -90.1484 11.5756 0.346697 -0.331524 -0.0953211 0.331768 -0.346465 -22.6307 0.430304 -0.211997 -2.61805 0.430302 -0.211999 90.1785 -30.9049 -106.068 40.7302 -16.8764 -6.73696 4.16755 -25.1464 -15.846 -24.2134 -0.488174 -9.10048 -89.1073 -58.1939 81.5804 -16.6399 22.5714 -16.1519 1.98412 4.83324 -9.19752 1.60479 -0.0901319 -4.55748 7.45741 -0.853254 -1.16809 -5.64584 -0.632806 1.05938 
10.2665 99.4241 21.5058 -154.503 -82.9869 -155.159 -177.63 -1.50647 89.5689 -14.5433 3.14314 -0.157745 72.3088 4.73961 -2.39055 14.8639 -3.25663 5.88534 169.77 -4.35119 87.4419 -12.7952 -3.45064 -0.117445 71.4804 -5.89813 2.86808 20.6656 -1.14748 3.90903 0.229611 7.618 -90.1789 11.6385 0.372912 -0.395419 -0.0324923 0.355141 -0.411452 -22.5678 0.474511 -0.26506 -2.55518 0.474506 -0.265063 90.1559 -30.7354 -106.175 40.9669 -16.5508 -6.63576 3.96138 -25.3873 -15.7664 -24.2492 -0.604811 -8.50951 -89.0134 -58.2498 81.7187 -16.4375 22.8532 -16.3778 1.75018 4.40084 -9.0271 0.849739 -0.0880538 -4.52247 7.71013 -0.83928 -0.971333 -5.92927 -0.652432 0.850887 
10.2236 99.4246 21.5276 -155.03 -82.9149 -155.654 -177.616 -1.67944 89.6202 -14.4371 3.08803 -0.12326 72.3986 4.77929 -2.52158 14.2354 -3.05252 5.69287 169.715 -4.57136 87.451 -12.6115 -3.46909 -0.0570151 71.39 -5.89833 2.83509 20.6814 -1.09121 3.79599 0.210902 7.62409 -90.1845 11.6262 0.333111 -0.402248 -0.0448093 0.315086 -0.416528 -22.58 0.438602 -0.283532 -2.56738 0.438602 -0.283544 90.0611 -30.5882 -106.416 41.0301 -16.6854 -6.59664 4.12166 -25.1719 -15.4897 -24.4941 -0.450312 -9.27419 -88.9743 -58.3581 81.7904 -16.2612 23.0317 -16.2424 1.72889 4.49573 -9.25906 1.41525 -0.0926051 -4.42529 7.7041 -0.772866 -0.808763 -5.95598 -0.619356 0.799825 
10.211 99.4319 21.5769 -155.574 -82.7613 -156.345 -177.678 -1.98843 89.485 -14.236 2.84997 -0.106495 72.2976 4.73161 -2.67036 14.407 -2.84144 5.43926 169.622 -4.56628 87.3155 -12.9144 -3.57171 -0.0690773 71.4172 -5.86022 2.40022 20.8246 -1.2562 4.10285 0.218788 7.6414 -90.1708 11.5915 0.355279 -0.377033 -0.0794288 0.338338 -0.392308 -22.6147 0.45216 -0.252833 -2.60209 0.45217 -0.25282 90.0742 -30.6828 -106.355 40.7495 -16.971 -6.7329 4.48555 -25.0087 -15.199 -24.1362 -0.439719 -9.32791 -89.1366 -58.3564 81.5682 -16.2041 23.087 -16.3431 1.69371 4.76088 -9.11475 1.21608 -0.101186 -4.70072 7.61605 -0.802605 -0.687102 -5.86855 -0.668053 0.640288 
10.1734 99.4398 21.5779 -155.005 -82.7838 -155.692 -177.681 -1.9214 89.5438 -14.2796 2.93077 -0.0537152 72.4036 4.77559 -2.5895 14.3966 -3.03632 5.66341 169.737 -4.72332 87.4697 -12.5552 -3.59937 -0.101453 71.3963 -5.91931 2.19744 20.5511 -1.34072 4.30221 0.226042 7.63599 -90.175 11.6024 0.36772 -0.38679 -0.0685258 0.350342 -0.402599 -22.6039 0.466973 -0.258383 -2.59121 0.466963 -0.258396 90.0883 -30.7206 -106.313 40.8328 -16.7774 -6.67799 4.07674 -25.4737 -15.7419 -24.4941 -0.605973 -8.49835 -89.114 -58.0661 81.5492 -16.7766 22.882 -16.249 1.7536 4.35349 -9.06767 0.392654 -0.114148 -5.34834 7.77603 -0.893329 -0.826958 -6.08342 -0.730905 0.713508 
10.1744 99.4382 21.5861 -155.704 -82.7848 -156.418 -177.689 -2.01141 89.5101 -14.1814 3.12161 -0.0409391 72.2882 4.76015 -2.48888 14.4749 -3.47808 6.16465 169.646 -4.84249 87.3416 -12.4123 -3.23954 -0.0757013 71.3381 -5.83937 3.17026 20.7639 -1.04694 3.69771 0.218833 7.63909 -90.1616 11.5962 0.359689 -0.359151 -0.0747699 0.343537 -0.374645 -22.6101 0.451001 -0.234445 -2.59748 0.451 -0.234455 89.9877 -30.863 -106.457 40.7543 -16.6794 -6.65381 4.4438 -25.4744 -15.2811 -24.3629 -0.447919 -9.38867 -89.1444 -57.7473 81.4521 -17.0612 22.587 -16.2259 1.98691 5.09256 -9.02321 1.69527 -0.0943755 -4.46752 7.68374 -0.886341 -0.99033 -5.89866 -0.692665 0.792416 
10.1495 99.4642 21.6387 -155.659 -82.5934 -156.475 -177.572 -2.39958 89.5233 -13.8192 3.35782 -0.204861 72.1169 4.7904 -2.24026 14.4896 -3.03552 5.65576 169.641 -4.9817 87.2735 -12.5282 -3.92108 -0.190766 71.3022 -5.8282 2.43481 20.8193 -1.12302 3.8374 0.235134 7.65959 -90.1425 11.5552 0.401135 -0.325258 -0.115693 0.38643 -0.342603 -22.6512 0.480332 -0.189664 -2.63855 0.480343 -0.189659 90.0198 -31.0732 -106.316 40.5254 -16.809 -6.83731 4.80003 -25.5513 -14.9899 -24.3199 -0.551584 -8.81189 -89.2145 -57.4443 81.3027 -17.3992 22.5896 -16.25 1.95417 4.98055 -8.88723 1.28207 -0.106695 -4.81231 7.78206 -1.00488 -1.49881 -6.05262 -0.72293 1.32561 
10.1212 99.4621 21.554 -154.69 -82.7924 -155.341 -177.628 -1.95655 89.6399 -14.1412 3.11355 -0.0663667 72.2621 4.76847 -2.59214 14.5266 -3.46363 6.14404 169.861 -4.90863 87.5653 -12.161 -3.50027 -0.20652 71.2362 -5.87218 2.59718 20.6297 -1.14754 3.91206 0.23754 7.6286 -90.1793 11.6173 0.388558 -0.397524 -0.0536597 0.370691 -0.414249 -22.589 0.490062 -0.262366 -2.57639 0.490062 -0.262371 90.0542 -30.761 -106.365 40.8359 -16.8845 -6.60051 4.3295 -26.3806 -15.2612 -24.6646 -0.668756 -8.39326 -89.2634 -57.7091 81.2819 -17.2641 22.4916 -16.3083 1.95332 5.28262 -8.68466 1.54608 -0.099162 -4.60926 7.64718 -0.946481 -0.992329 -6.00606 -0.755667 0.885881 
10.1083 99.4582 21.5423 -153.197 -82.8577 -153.738 -177.546 -1.94833 89.7652 -13.8599 3.06633 -0.140928 72.3147 4.849 -2.29961 14.3036 -2.94403 5.56443 169.987 -4.83458 87.7124 -12.0594 -3.35345 -0.222755 71.1788 -5.8544 2.96285 20.4765 -1.01529 3.67455 0.253071 7.6185 -90.166 11.6375 0.425667 -0.375024 -0.033421 0.408757 -0.393403 -22.5689 0.518695 -0.229757 -2.55629 0.518698 -0.229756 89.9224 -31.0526 -106.514 40.7309 -16.5889 -6.67222 4.47356 -26.0145 -15.1014 -23.1359 -0.647045 -8.56482 -89.1446 -57.0737 81.3344 -17.7883 22.5906 -16.2861 1.92421 5.04318 -8.65219 1.13977 -0.103986 -4.80854 7.65711 -1.07601 -1.75365 -5.92894 -0.741335 1.34818 
10.1229 99.4715 21.5733 -155.035 -82.7738 -155.871 -177.653 -2.10638 89.4862 -13.8989 3.27775 -0.13835 71.9203 4.69313 -2.28621 14.8726 -2.91893 5.49472 169.679 -4.79213 87.3182 -12.4092 -3.83679 -0.189046 71.2217 -5.81354 2.48297 20.8375 -1.09317 3.77972 0.227822 7.63957 -90.1663 11.5953 0.375382 -0.370174 -0.075679 0.358727 -0.386333 -22.6111 0.469279 -0.240236 -2.59841 0.469275 -0.240246 90.0076 -30.7521 -106.46 40.7227 -17.0287 -6.68747 4.61547 -26.3128 -14.9687 -24.696 -0.827341 -7.47684 -89.3037 -57.7451 81.2324 -16.639 23.8582 -16.3425 1.16033 3.2766 -9.00633 0.946733 -0.114372 -5.19096 7.16958 -1.01408 -1.35472 -4.9458 -0.768018 1.75215 
10.0518 99.4575 21.4813 -152.189 -83.0036 -152.637 -177.445 -1.50534 89.947 -14.289 3.1124 -0.209996 72.2077 4.69077 -2.77051 14.7192 -3.76416 6.47841 170.083 -4.5565 87.8842 -12.1503 -3.35277 -0.184007 71.089 -5.83823 2.78652 20.5718 -1.12455 3.876 0.2739 7.58905 -90.1799 11.6965 0.460427 -0.406744 0.0255795 0.442079 -0.426624 -22.51 0.561383 -0.24956 -2.49736 0.561385 -0.249564 89.9382 -31.0648 -106.478 40.7868 -16.6951 -6.4899 4.11645 -26.2763 -15.6665 -22.9839 -0.922931 -6.95518 -89.2835 -56.9272 81.1159 -17.8762 22.7461 -16.2544 1.70342 4.30339 -8.34313 1.23309 -0.0933865 -4.46741 6.88413 -1.22108 -2.10818 -4.83175 -0.8321 2.13995 
10.0521 99.4388 21.5001 -153.056 -82.8921 -153.667 -177.508 -1.75004 89.7838 -14.1373 3.06745 -0.205371 72.2751 4.76877 -2.41947 14.7337 -3.0935 5.70385 169.762 -4.67846 87.5893 -12.1688 -3.72705 -0.0374434 71.3292 -5.95864 2.60468 20.3984 -1.06485 3.78164 0.266021 7.60869 -90.1644 11.6572 0.452119 -0.374737 -0.0137053 0.43518 -0.394284 -22.5493 0.543828 -0.221533 -2.53667 0.543835 -0.221536 89.959 -30.9997 -106.462 40.7358 -16.7852 -6.59578 4.39507 -26.3289 -15.7974 -22.8608 -0.907526 -7.08707 -89.2233 -56.7736 81.1722 -18.1423 22.6513 -16.2855 1.78342 4.56544 -8.33918 1.09867 -0.100715 -4.7108 6.92662 -1.22011 -2.16681 -4.86477 -0.821754 2.23445 
10.0513 99.4331 21.4742 -152.835 -82.8666 -153.455 -177.491 -1.52978 89.7868 -14.5438 3.09398 -0.236095 72.285 4.6846 -2.42116 14.6172 -3.08634 5.70549 169.949 -4.59629 87.649 -12.3683 -3.24889 -0.208007 71.3811 -5.89345 3.09125 20.5598 -1.15394 3.93513 0.271421 7.62552 -90.1796 11.6236 0.455825 -0.405178 -0.0473469 0.437552 -0.424862 -22.5829 0.556521 -0.249453 -2.57026 0.556519 -0.249462 89.9963 -30.9264 -106.417 40.5788 -16.777 -6.57023 4.46439 -26.0538 -15.6133 -23.5251 -0.903958 -6.99075 -89.3504 -57.1478 81.0623 -17.0984 23.8114 -16.279 1.24346 3.33234 -9.00505 1.5624 -0.0910649 -4.38575 7.05943 -1.28183 -1.86365 -5.01067 -0.938714 2.06087 
10.0364 99.4336 21.3837 -154.495 -83.0031 -155.166 -177.567 -1.49991 89.7464 -14.3792 3.09993 -0.160399 72.1852 4.66881 -2.69574 14.5471 -3.10729 5.73424 169.833 -4.52877 87.5933 -12.3266 -3.1356 -0.0837774 71.2626 -5.86689 3.02804 20.6008 -1.14027 3.90308 0.242416 7.61239 -90.1501 11.6497 0.411875 -0.342017 -0.0212515 0.396414 -0.359822 -22.5568 0.495619 -0.202416 -2.54412 0.495612 -0.202433 89.9474 -31.1192 -106.44 40.7147 -16.8625 -6.48819 4.08952 -25.788 -16.0591 -24.4421 -0.665659 -8.2514 -89.2358 -56.5526 81.1153 -18.1495 22.8847 -16.1655 1.71238 4.26249 -8.59224 0.864251 -0.0998265 -4.74204 6.8635 -1.36174 -2.45927 -4.90042 -0.911108 2.49095 
10.0343 99.423 21.378 -153.43 -83.0736 -154.034 -177.495 -1.44081 89.8384 -14.2948 3.20442 -0.231707 72.2737 4.70309 -2.55958 14.2855 -3.27 5.9388 169.919 -4.35118 87.6996 -12.4541 -3.29006 -0.102406 71.3419 -5.89326 2.81383 20.3216 -1.15741 3.972 0.25112 7.61286 -90.1759 11.6488 0.417101 -0.393991 -0.0221098 0.399361 -0.411975 -22.5576 0.516226 -0.250418 -2.54493 0.516226 -0.250422 89.9743 -30.9606 -106.447 40.6283 -16.787 -6.52195 4.02333 -26.0455 -16.2123 -24.2864 -0.813743 -7.49248 -89.2811 -57.0602 81.1428 -17.4018 23.5094 -16.2489 1.37295 3.47855 -8.90668 0.489682 -0.101254 -4.89263 7.08233 -1.279 -1.96535 -5.00143 -0.918343 2.18146 
